<mxfile host="Electron" modified="2023-06-27T04:45:08.665Z" agent="Mozilla/5.0 (Windows NT 10.0; Win64; x64) AppleWebKit/537.36 (KHTML, like Gecko) draw.io/21.2.8 Chrome/112.0.5615.165 Electron/24.2.0 Safari/537.36" etag="DD7LgiplrvMsqV-Ixzaz" version="21.2.8" type="device">
  <diagram name="Page-1" id="42FZV4WyttCOzOpBbwo0">
    <mxGraphModel dx="780" dy="504" grid="1" gridSize="10" guides="1" tooltips="1" connect="1" arrows="1" fold="1" page="1" pageScale="1" pageWidth="850" pageHeight="1100" math="0" shadow="0">
      <root>
        <mxCell id="0" />
        <mxCell id="1" parent="0" />
        <mxCell id="xVhLS2m0k9xJWD_yDWsX-1" value="Start" style="ellipse;whiteSpace=wrap;html=1;" parent="1" vertex="1">
          <mxGeometry x="503.68" y="13.44" width="90" height="50" as="geometry" />
        </mxCell>
        <mxCell id="xVhLS2m0k9xJWD_yDWsX-2" value="" style="endArrow=classic;html=1;rounded=0;exitX=0.5;exitY=1;exitDx=0;exitDy=0;" parent="1" source="xVhLS2m0k9xJWD_yDWsX-1" edge="1">
          <mxGeometry width="50" height="50" relative="1" as="geometry">
            <mxPoint x="573.68" y="293.44" as="sourcePoint" />
            <mxPoint x="548.68" y="103.44" as="targetPoint" />
          </mxGeometry>
        </mxCell>
        <mxCell id="xVhLS2m0k9xJWD_yDWsX-3" value="have an account" style="rhombus;whiteSpace=wrap;html=1;" parent="1" vertex="1">
          <mxGeometry x="512.43" y="103.44" width="72.5" height="60" as="geometry" />
        </mxCell>
        <mxCell id="xVhLS2m0k9xJWD_yDWsX-5" value="" style="endArrow=classic;html=1;rounded=0;exitX=1;exitY=0.5;exitDx=0;exitDy=0;" parent="1" source="xVhLS2m0k9xJWD_yDWsX-3" edge="1">
          <mxGeometry width="50" height="50" relative="1" as="geometry">
            <mxPoint x="573.68" y="283.44" as="sourcePoint" />
            <mxPoint x="633.68" y="133.44" as="targetPoint" />
          </mxGeometry>
        </mxCell>
        <mxCell id="xVhLS2m0k9xJWD_yDWsX-6" value="Login" style="rounded=1;whiteSpace=wrap;html=1;" parent="1" vertex="1">
          <mxGeometry x="383.68" y="118.44" width="80" height="30" as="geometry" />
        </mxCell>
        <mxCell id="xVhLS2m0k9xJWD_yDWsX-7" value="Signup" style="rounded=1;whiteSpace=wrap;html=1;" parent="1" vertex="1">
          <mxGeometry x="633.68" y="118.44" width="90" height="30" as="geometry" />
        </mxCell>
        <mxCell id="xVhLS2m0k9xJWD_yDWsX-8" value="no" style="text;html=1;align=center;verticalAlign=middle;resizable=0;points=[];autosize=1;strokeColor=none;fillColor=none;" parent="1" vertex="1">
          <mxGeometry x="584.93" y="103.44" width="40" height="30" as="geometry" />
        </mxCell>
        <mxCell id="xVhLS2m0k9xJWD_yDWsX-9" value="" style="endArrow=classic;html=1;rounded=0;exitX=0;exitY=0.5;exitDx=0;exitDy=0;" parent="1" source="xVhLS2m0k9xJWD_yDWsX-3" edge="1">
          <mxGeometry width="50" height="50" relative="1" as="geometry">
            <mxPoint x="503.68" y="203.44" as="sourcePoint" />
            <mxPoint x="463.68" y="133.44" as="targetPoint" />
          </mxGeometry>
        </mxCell>
        <mxCell id="xVhLS2m0k9xJWD_yDWsX-10" value="yes" style="text;html=1;align=center;verticalAlign=middle;resizable=0;points=[];autosize=1;strokeColor=none;fillColor=none;" parent="1" vertex="1">
          <mxGeometry x="472.43" y="103.44" width="40" height="30" as="geometry" />
        </mxCell>
        <mxCell id="xVhLS2m0k9xJWD_yDWsX-11" value="" style="endArrow=classic;html=1;rounded=0;" parent="1" edge="1">
          <mxGeometry width="50" height="50" relative="1" as="geometry">
            <mxPoint x="423.18" y="148.44" as="sourcePoint" />
            <mxPoint x="423.68" y="203.44" as="targetPoint" />
          </mxGeometry>
        </mxCell>
        <mxCell id="xVhLS2m0k9xJWD_yDWsX-12" value="" style="endArrow=classic;html=1;rounded=0;exitX=0.5;exitY=0;exitDx=0;exitDy=0;entryX=1;entryY=0.5;entryDx=0;entryDy=0;" parent="1" source="xVhLS2m0k9xJWD_yDWsX-7" target="xVhLS2m0k9xJWD_yDWsX-1" edge="1">
          <mxGeometry width="50" height="50" relative="1" as="geometry">
            <mxPoint x="423.68" y="283.44" as="sourcePoint" />
            <mxPoint x="473.68" y="233.44" as="targetPoint" />
            <Array as="points">
              <mxPoint x="678.68" y="38.44" />
            </Array>
          </mxGeometry>
        </mxCell>
        <mxCell id="xVhLS2m0k9xJWD_yDWsX-13" value="is admin" style="rhombus;whiteSpace=wrap;html=1;" parent="1" vertex="1">
          <mxGeometry x="388.68" y="203.44" width="70" height="60" as="geometry" />
        </mxCell>
        <mxCell id="xVhLS2m0k9xJWD_yDWsX-14" value="" style="endArrow=classic;html=1;rounded=0;exitX=1;exitY=0.5;exitDx=0;exitDy=0;" parent="1" source="xVhLS2m0k9xJWD_yDWsX-13" edge="1">
          <mxGeometry width="50" height="50" relative="1" as="geometry">
            <mxPoint x="423.68" y="283.44" as="sourcePoint" />
            <mxPoint x="523.68" y="233.44" as="targetPoint" />
          </mxGeometry>
        </mxCell>
        <mxCell id="xVhLS2m0k9xJWD_yDWsX-15" value="yes" style="text;html=1;align=center;verticalAlign=middle;resizable=0;points=[];autosize=1;strokeColor=none;fillColor=none;" parent="1" vertex="1">
          <mxGeometry x="463.68" y="211.44" width="40" height="30" as="geometry" />
        </mxCell>
        <mxCell id="xVhLS2m0k9xJWD_yDWsX-16" value="admin dashboard" style="rounded=1;whiteSpace=wrap;html=1;" parent="1" vertex="1">
          <mxGeometry x="523.68" y="210.94" width="90" height="45" as="geometry" />
        </mxCell>
        <mxCell id="xVhLS2m0k9xJWD_yDWsX-18" value="" style="endArrow=classic;html=1;rounded=0;exitX=0.43;exitY=1.026;exitDx=0;exitDy=0;exitPerimeter=0;" parent="1" source="xVhLS2m0k9xJWD_yDWsX-16" edge="1">
          <mxGeometry width="50" height="50" relative="1" as="geometry">
            <mxPoint x="423.68" y="273.44" as="sourcePoint" />
            <mxPoint x="562.68" y="303.44" as="targetPoint" />
          </mxGeometry>
        </mxCell>
        <mxCell id="xVhLS2m0k9xJWD_yDWsX-19" value="" style="endArrow=none;html=1;rounded=0;" parent="1" edge="1">
          <mxGeometry width="50" height="50" relative="1" as="geometry">
            <mxPoint x="423.68" y="303.44" as="sourcePoint" />
            <mxPoint x="850" y="303" as="targetPoint" />
          </mxGeometry>
        </mxCell>
        <mxCell id="xVhLS2m0k9xJWD_yDWsX-20" value="" style="endArrow=classic;html=1;rounded=0;" parent="1" edge="1">
          <mxGeometry width="50" height="50" relative="1" as="geometry">
            <mxPoint x="423.68" y="303.44" as="sourcePoint" />
            <mxPoint x="423.68" y="353.44" as="targetPoint" />
          </mxGeometry>
        </mxCell>
        <mxCell id="xVhLS2m0k9xJWD_yDWsX-21" value="Add food items" style="rounded=1;whiteSpace=wrap;html=1;" parent="1" vertex="1">
          <mxGeometry x="393.68" y="353.44" width="60" height="40" as="geometry" />
        </mxCell>
        <mxCell id="xVhLS2m0k9xJWD_yDWsX-22" value="" style="endArrow=classic;html=1;rounded=0;" parent="1" edge="1">
          <mxGeometry width="50" height="50" relative="1" as="geometry">
            <mxPoint x="491.93" y="303.44" as="sourcePoint" />
            <mxPoint x="491.93" y="353.44" as="targetPoint" />
          </mxGeometry>
        </mxCell>
        <mxCell id="xVhLS2m0k9xJWD_yDWsX-23" value="Update food items" style="rounded=1;whiteSpace=wrap;html=1;" parent="1" vertex="1">
          <mxGeometry x="462.43" y="353.44" width="60" height="40" as="geometry" />
        </mxCell>
        <mxCell id="xVhLS2m0k9xJWD_yDWsX-24" value="Delete food items" style="rounded=1;whiteSpace=wrap;html=1;" parent="1" vertex="1">
          <mxGeometry x="533.68" y="353.44" width="60" height="40" as="geometry" />
        </mxCell>
        <mxCell id="xVhLS2m0k9xJWD_yDWsX-25" value="View orders" style="rounded=1;whiteSpace=wrap;html=1;" parent="1" vertex="1">
          <mxGeometry x="603.68" y="353.44" width="60" height="40" as="geometry" />
        </mxCell>
        <mxCell id="xVhLS2m0k9xJWD_yDWsX-26" value="Update status" style="rounded=1;whiteSpace=wrap;html=1;" parent="1" vertex="1">
          <mxGeometry x="673.68" y="353.44" width="60" height="40" as="geometry" />
        </mxCell>
        <mxCell id="xVhLS2m0k9xJWD_yDWsX-27" value="View rating" style="rounded=1;whiteSpace=wrap;html=1;" parent="1" vertex="1">
          <mxGeometry x="743.68" y="353.44" width="60" height="40" as="geometry" />
        </mxCell>
        <mxCell id="xVhLS2m0k9xJWD_yDWsX-28" value="" style="endArrow=classic;html=1;rounded=0;" parent="1" edge="1">
          <mxGeometry width="50" height="50" relative="1" as="geometry">
            <mxPoint x="563.18" y="303.44" as="sourcePoint" />
            <mxPoint x="563.18" y="353.44" as="targetPoint" />
          </mxGeometry>
        </mxCell>
        <mxCell id="xVhLS2m0k9xJWD_yDWsX-29" value="" style="endArrow=classic;html=1;rounded=0;" parent="1" edge="1">
          <mxGeometry width="50" height="50" relative="1" as="geometry">
            <mxPoint x="633.18" y="303.44" as="sourcePoint" />
            <mxPoint x="633.18" y="353.44" as="targetPoint" />
          </mxGeometry>
        </mxCell>
        <mxCell id="xVhLS2m0k9xJWD_yDWsX-30" value="" style="endArrow=classic;html=1;rounded=0;" parent="1" edge="1">
          <mxGeometry width="50" height="50" relative="1" as="geometry">
            <mxPoint x="703.18" y="303.44" as="sourcePoint" />
            <mxPoint x="703.18" y="353.44" as="targetPoint" />
          </mxGeometry>
        </mxCell>
        <mxCell id="xVhLS2m0k9xJWD_yDWsX-31" value="" style="endArrow=classic;html=1;rounded=0;entryX=0.5;entryY=0;entryDx=0;entryDy=0;" parent="1" target="xVhLS2m0k9xJWD_yDWsX-27" edge="1">
          <mxGeometry width="50" height="50" relative="1" as="geometry">
            <mxPoint x="773.68" y="303.44" as="sourcePoint" />
            <mxPoint x="531.93" y="393.44" as="targetPoint" />
          </mxGeometry>
        </mxCell>
        <mxCell id="xVhLS2m0k9xJWD_yDWsX-32" value="" style="endArrow=classic;html=1;rounded=0;exitX=0;exitY=0.5;exitDx=0;exitDy=0;entryX=-0.092;entryY=0.75;entryDx=0;entryDy=0;entryPerimeter=0;" parent="1" source="xVhLS2m0k9xJWD_yDWsX-13" target="xVhLS2m0k9xJWD_yDWsX-33" edge="1">
          <mxGeometry width="50" height="50" relative="1" as="geometry">
            <mxPoint x="293.68" y="251.44" as="sourcePoint" />
            <mxPoint x="283.68" y="233.44" as="targetPoint" />
          </mxGeometry>
        </mxCell>
        <mxCell id="xVhLS2m0k9xJWD_yDWsX-33" value="no" style="text;html=1;align=center;verticalAlign=middle;resizable=0;points=[];autosize=1;strokeColor=none;fillColor=none;" parent="1" vertex="1">
          <mxGeometry x="333.68" y="210.94" width="40" height="30" as="geometry" />
        </mxCell>
        <mxCell id="xVhLS2m0k9xJWD_yDWsX-35" value="" style="endArrow=classic;html=1;rounded=0;exitX=0.5;exitY=1;exitDx=0;exitDy=0;" parent="1" source="xVhLS2m0k9xJWD_yDWsX-21" edge="1">
          <mxGeometry width="50" height="50" relative="1" as="geometry">
            <mxPoint x="433.68" y="463.44" as="sourcePoint" />
            <mxPoint x="423.68" y="443.44" as="targetPoint" />
          </mxGeometry>
        </mxCell>
        <mxCell id="xVhLS2m0k9xJWD_yDWsX-36" value="" style="endArrow=classic;html=1;rounded=0;exitX=0.5;exitY=1;exitDx=0;exitDy=0;" parent="1" edge="1">
          <mxGeometry width="50" height="50" relative="1" as="geometry">
            <mxPoint x="491.93" y="393.44" as="sourcePoint" />
            <mxPoint x="491.93" y="443.44" as="targetPoint" />
          </mxGeometry>
        </mxCell>
        <mxCell id="xVhLS2m0k9xJWD_yDWsX-37" value="" style="endArrow=classic;html=1;rounded=0;exitX=0.5;exitY=1;exitDx=0;exitDy=0;" parent="1" edge="1">
          <mxGeometry width="50" height="50" relative="1" as="geometry">
            <mxPoint x="563.18" y="393.44" as="sourcePoint" />
            <mxPoint x="563.18" y="443.44" as="targetPoint" />
          </mxGeometry>
        </mxCell>
        <mxCell id="xVhLS2m0k9xJWD_yDWsX-38" value="" style="endArrow=classic;html=1;rounded=0;exitX=0.5;exitY=1;exitDx=0;exitDy=0;" parent="1" edge="1">
          <mxGeometry width="50" height="50" relative="1" as="geometry">
            <mxPoint x="633.68" y="393.44" as="sourcePoint" />
            <mxPoint x="633.68" y="443.44" as="targetPoint" />
          </mxGeometry>
        </mxCell>
        <mxCell id="xVhLS2m0k9xJWD_yDWsX-39" value="" style="endArrow=classic;html=1;rounded=0;exitX=0.5;exitY=1;exitDx=0;exitDy=0;" parent="1" edge="1">
          <mxGeometry width="50" height="50" relative="1" as="geometry">
            <mxPoint x="703.18" y="393.44" as="sourcePoint" />
            <mxPoint x="703.18" y="443.44" as="targetPoint" />
          </mxGeometry>
        </mxCell>
        <mxCell id="xVhLS2m0k9xJWD_yDWsX-40" value="" style="endArrow=classic;html=1;rounded=0;exitX=0.5;exitY=1;exitDx=0;exitDy=0;" parent="1" edge="1">
          <mxGeometry width="50" height="50" relative="1" as="geometry">
            <mxPoint x="773.18" y="393.44" as="sourcePoint" />
            <mxPoint x="773.18" y="443.44" as="targetPoint" />
          </mxGeometry>
        </mxCell>
        <mxCell id="xVhLS2m0k9xJWD_yDWsX-42" value="" style="endArrow=none;html=1;rounded=0;" parent="1" edge="1">
          <mxGeometry width="50" height="50" relative="1" as="geometry">
            <mxPoint x="423.68" y="443.44" as="sourcePoint" />
            <mxPoint x="900" y="440" as="targetPoint" />
          </mxGeometry>
        </mxCell>
        <mxCell id="xVhLS2m0k9xJWD_yDWsX-43" value="" style="endArrow=none;html=1;rounded=0;" parent="1" edge="1">
          <mxGeometry width="50" height="50" relative="1" as="geometry">
            <mxPoint x="613.68" y="233.44" as="sourcePoint" />
            <mxPoint x="900" y="233" as="targetPoint" />
          </mxGeometry>
        </mxCell>
        <mxCell id="xVhLS2m0k9xJWD_yDWsX-44" value="" style="endArrow=none;html=1;rounded=0;" parent="1" edge="1">
          <mxGeometry width="50" height="50" relative="1" as="geometry">
            <mxPoint x="900" y="442" as="sourcePoint" />
            <mxPoint x="900" y="232" as="targetPoint" />
          </mxGeometry>
        </mxCell>
        <mxCell id="xVhLS2m0k9xJWD_yDWsX-45" value="user dashboard" style="rounded=1;whiteSpace=wrap;html=1;" parent="1" vertex="1">
          <mxGeometry x="120" y="268" width="80" height="42" as="geometry" />
        </mxCell>
        <mxCell id="xVhLS2m0k9xJWD_yDWsX-46" value="" style="endArrow=classic;html=1;rounded=0;" parent="1" edge="1">
          <mxGeometry width="50" height="50" relative="1" as="geometry">
            <mxPoint x="160" y="310" as="sourcePoint" />
            <mxPoint x="160" y="350" as="targetPoint" />
          </mxGeometry>
        </mxCell>
        <mxCell id="xVhLS2m0k9xJWD_yDWsX-47" value="Search by text or rating" style="rounded=1;whiteSpace=wrap;html=1;" parent="1" vertex="1">
          <mxGeometry x="120" y="350" width="80" height="40" as="geometry" />
        </mxCell>
        <mxCell id="xVhLS2m0k9xJWD_yDWsX-48" value="" style="endArrow=classic;html=1;rounded=0;entryX=1;entryY=0.5;entryDx=0;entryDy=0;" parent="1" target="xVhLS2m0k9xJWD_yDWsX-49" edge="1">
          <mxGeometry width="50" height="50" relative="1" as="geometry">
            <mxPoint x="120" y="369.5" as="sourcePoint" />
            <mxPoint x="70" y="370" as="targetPoint" />
          </mxGeometry>
        </mxCell>
        <mxCell id="xVhLS2m0k9xJWD_yDWsX-49" value="is present" style="rhombus;whiteSpace=wrap;html=1;" parent="1" vertex="1">
          <mxGeometry y="335" width="70" height="70" as="geometry" />
        </mxCell>
        <mxCell id="xVhLS2m0k9xJWD_yDWsX-50" value="" style="endArrow=classic;html=1;rounded=0;exitX=0.5;exitY=0;exitDx=0;exitDy=0;entryX=0;entryY=0.5;entryDx=0;entryDy=0;" parent="1" source="xVhLS2m0k9xJWD_yDWsX-49" target="xVhLS2m0k9xJWD_yDWsX-45" edge="1">
          <mxGeometry width="50" height="50" relative="1" as="geometry">
            <mxPoint x="30" y="220" as="sourcePoint" />
            <mxPoint x="80" y="170" as="targetPoint" />
            <Array as="points">
              <mxPoint x="35" y="290" />
            </Array>
          </mxGeometry>
        </mxCell>
        <mxCell id="xVhLS2m0k9xJWD_yDWsX-51" value="no" style="text;html=1;align=center;verticalAlign=middle;resizable=0;points=[];autosize=1;strokeColor=none;fillColor=none;" parent="1" vertex="1">
          <mxGeometry x="40" y="268" width="40" height="30" as="geometry" />
        </mxCell>
        <mxCell id="xVhLS2m0k9xJWD_yDWsX-52" value="" style="endArrow=classic;html=1;rounded=0;" parent="1" target="xVhLS2m0k9xJWD_yDWsX-54" edge="1">
          <mxGeometry width="50" height="50" relative="1" as="geometry">
            <mxPoint x="34.5" y="405" as="sourcePoint" />
            <mxPoint x="110" y="450" as="targetPoint" />
            <Array as="points">
              <mxPoint x="35" y="440" />
            </Array>
          </mxGeometry>
        </mxCell>
        <mxCell id="xVhLS2m0k9xJWD_yDWsX-53" value="yes" style="text;html=1;align=center;verticalAlign=middle;resizable=0;points=[];autosize=1;strokeColor=none;fillColor=none;" parent="1" vertex="1">
          <mxGeometry x="30" y="408" width="40" height="30" as="geometry" />
        </mxCell>
        <mxCell id="xVhLS2m0k9xJWD_yDWsX-54" value="view product description" style="rounded=1;whiteSpace=wrap;html=1;" parent="1" vertex="1">
          <mxGeometry x="120" y="420" width="80" height="40" as="geometry" />
        </mxCell>
        <mxCell id="xVhLS2m0k9xJWD_yDWsX-55" value="" style="endArrow=classic;html=1;rounded=0;entryX=0.5;entryY=0;entryDx=0;entryDy=0;" parent="1" target="xVhLS2m0k9xJWD_yDWsX-56" edge="1">
          <mxGeometry width="50" height="50" relative="1" as="geometry">
            <mxPoint x="158" y="460" as="sourcePoint" />
            <mxPoint x="110" y="520" as="targetPoint" />
            <Array as="points" />
          </mxGeometry>
        </mxCell>
        <mxCell id="xVhLS2m0k9xJWD_yDWsX-56" value="Add to cart" style="rounded=1;whiteSpace=wrap;html=1;" parent="1" vertex="1">
          <mxGeometry x="115" y="500" width="85" height="40" as="geometry" />
        </mxCell>
        <mxCell id="xVhLS2m0k9xJWD_yDWsX-57" value="" style="endArrow=classic;html=1;rounded=0;entryX=0.5;entryY=0;entryDx=0;entryDy=0;" parent="1" target="xVhLS2m0k9xJWD_yDWsX-58" edge="1">
          <mxGeometry width="50" height="50" relative="1" as="geometry">
            <mxPoint x="157" y="540" as="sourcePoint" />
            <mxPoint x="157" y="585" as="targetPoint" />
          </mxGeometry>
        </mxCell>
        <mxCell id="xVhLS2m0k9xJWD_yDWsX-58" value="Update cart" style="rounded=1;whiteSpace=wrap;html=1;" parent="1" vertex="1">
          <mxGeometry x="112.5" y="580" width="90" height="40" as="geometry" />
        </mxCell>
        <mxCell id="xVhLS2m0k9xJWD_yDWsX-59" value="Place order" style="rounded=1;whiteSpace=wrap;html=1;" parent="1" vertex="1">
          <mxGeometry x="107.5" y="660" width="100" height="40" as="geometry" />
        </mxCell>
        <mxCell id="xVhLS2m0k9xJWD_yDWsX-60" value="" style="endArrow=classic;html=1;rounded=0;entryX=0.5;entryY=0;entryDx=0;entryDy=0;" parent="1" target="xVhLS2m0k9xJWD_yDWsX-59" edge="1">
          <mxGeometry width="50" height="50" relative="1" as="geometry">
            <mxPoint x="157.5" y="620" as="sourcePoint" />
            <mxPoint x="207.5" y="570" as="targetPoint" />
          </mxGeometry>
        </mxCell>
        <mxCell id="xVhLS2m0k9xJWD_yDWsX-61" value="" style="endArrow=classic;html=1;rounded=0;exitX=0.5;exitY=1;exitDx=0;exitDy=0;" parent="1" source="xVhLS2m0k9xJWD_yDWsX-59" target="xVhLS2m0k9xJWD_yDWsX-62" edge="1">
          <mxGeometry width="50" height="50" relative="1" as="geometry">
            <mxPoint x="210" y="780" as="sourcePoint" />
            <mxPoint x="158" y="750" as="targetPoint" />
          </mxGeometry>
        </mxCell>
        <mxCell id="xVhLS2m0k9xJWD_yDWsX-62" value="rate food" style="rounded=1;whiteSpace=wrap;html=1;" parent="1" vertex="1">
          <mxGeometry x="104.38" y="740" width="106.25" height="40" as="geometry" />
        </mxCell>
        <mxCell id="xVhLS2m0k9xJWD_yDWsX-63" value="" style="endArrow=classic;html=1;rounded=0;exitX=0.5;exitY=1;exitDx=0;exitDy=0;entryX=0.658;entryY=1.04;entryDx=0;entryDy=0;entryPerimeter=0;" parent="1" source="xVhLS2m0k9xJWD_yDWsX-62" target="xVhLS2m0k9xJWD_yDWsX-45" edge="1">
          <mxGeometry width="50" height="50" relative="1" as="geometry">
            <mxPoint x="230" y="780" as="sourcePoint" />
            <mxPoint x="190" y="320" as="targetPoint" />
            <Array as="points">
              <mxPoint x="158" y="820" />
              <mxPoint x="220" y="820" />
              <mxPoint x="220" y="330" />
              <mxPoint x="173" y="330" />
            </Array>
          </mxGeometry>
        </mxCell>
        <mxCell id="xVhLS2m0k9xJWD_yDWsX-64" value="" style="endArrow=classic;html=1;rounded=0;exitX=1;exitY=0.75;exitDx=0;exitDy=0;entryX=0;entryY=0.5;entryDx=0;entryDy=0;" parent="1" source="xVhLS2m0k9xJWD_yDWsX-45" edge="1" target="xVhLS2m0k9xJWD_yDWsX-66">
          <mxGeometry width="50" height="50" relative="1" as="geometry">
            <mxPoint x="270" y="300" as="sourcePoint" />
            <mxPoint x="300" y="720" as="targetPoint" />
            <Array as="points">
              <mxPoint x="230" y="300" />
              <mxPoint x="230" y="720" />
            </Array>
          </mxGeometry>
        </mxCell>
        <mxCell id="xVhLS2m0k9xJWD_yDWsX-65" value="" style="endArrow=classic;html=1;rounded=0;exitX=0.25;exitY=1;exitDx=0;exitDy=0;" parent="1" source="xVhLS2m0k9xJWD_yDWsX-16" edge="1">
          <mxGeometry width="50" height="50" relative="1" as="geometry">
            <mxPoint x="510" y="270" as="sourcePoint" />
            <mxPoint x="390" y="720" as="targetPoint" />
            <Array as="points">
              <mxPoint x="546" y="280" />
              <mxPoint x="390" y="280" />
              <mxPoint x="390" y="500" />
              <mxPoint x="390" y="610" />
              <mxPoint x="390" y="670" />
            </Array>
          </mxGeometry>
        </mxCell>
        <mxCell id="xVhLS2m0k9xJWD_yDWsX-66" value="stop" style="ellipse;whiteSpace=wrap;html=1;" parent="1" vertex="1">
          <mxGeometry x="308.68" y="700" width="80" height="40" as="geometry" />
        </mxCell>
        <mxCell id="xVhLS2m0k9xJWD_yDWsX-67" value="is chef" style="rhombus;whiteSpace=wrap;html=1;" parent="1" vertex="1">
          <mxGeometry x="280" y="210" width="53.68" height="53.44" as="geometry" />
        </mxCell>
        <mxCell id="xVhLS2m0k9xJWD_yDWsX-69" value="" style="endArrow=classic;html=1;rounded=0;exitX=0.5;exitY=1;exitDx=0;exitDy=0;entryX=0.167;entryY=1.078;entryDx=0;entryDy=0;entryPerimeter=0;" parent="1" source="xVhLS2m0k9xJWD_yDWsX-67" edge="1" target="xVhLS2m0k9xJWD_yDWsX-70">
          <mxGeometry width="50" height="50" relative="1" as="geometry">
            <mxPoint x="390" y="430" as="sourcePoint" />
            <mxPoint x="307" y="310" as="targetPoint" />
          </mxGeometry>
        </mxCell>
        <mxCell id="xVhLS2m0k9xJWD_yDWsX-70" value="yes" style="text;html=1;align=center;verticalAlign=middle;resizable=0;points=[];autosize=1;strokeColor=none;fillColor=none;" parent="1" vertex="1">
          <mxGeometry x="300" y="268" width="40" height="30" as="geometry" />
        </mxCell>
        <mxCell id="xVhLS2m0k9xJWD_yDWsX-71" value="" style="endArrow=classic;html=1;rounded=0;exitX=0;exitY=0.5;exitDx=0;exitDy=0;entryX=0.5;entryY=0;entryDx=0;entryDy=0;" parent="1" source="xVhLS2m0k9xJWD_yDWsX-67" target="xVhLS2m0k9xJWD_yDWsX-45" edge="1">
          <mxGeometry width="50" height="50" relative="1" as="geometry">
            <mxPoint x="290" y="296.72" as="sourcePoint" />
            <mxPoint x="450" y="480" as="targetPoint" />
            <Array as="points">
              <mxPoint x="160" y="237" />
            </Array>
          </mxGeometry>
        </mxCell>
        <mxCell id="xVhLS2m0k9xJWD_yDWsX-72" value="View Orders" style="rounded=1;whiteSpace=wrap;html=1;" parent="1" vertex="1">
          <mxGeometry x="268.41999999999996" y="350" width="83.16" height="30" as="geometry" />
        </mxCell>
        <mxCell id="kbArP1zFFnXuU4s0yfzg-1" value="" style="endArrow=classic;html=1;rounded=0;exitX=0.5;exitY=1;exitDx=0;exitDy=0;" edge="1" parent="1" source="xVhLS2m0k9xJWD_yDWsX-72">
          <mxGeometry width="50" height="50" relative="1" as="geometry">
            <mxPoint x="271.58" y="500" as="sourcePoint" />
            <mxPoint x="309.58" y="410" as="targetPoint" />
          </mxGeometry>
        </mxCell>
        <mxCell id="kbArP1zFFnXuU4s0yfzg-2" value="update order status" style="rounded=1;whiteSpace=wrap;html=1;" vertex="1" parent="1">
          <mxGeometry x="271.58" y="410" width="80" height="32" as="geometry" />
        </mxCell>
        <mxCell id="kbArP1zFFnXuU4s0yfzg-3" value="" style="endArrow=classic;html=1;rounded=0;exitX=0.5;exitY=1;exitDx=0;exitDy=0;" edge="1" parent="1" source="kbArP1zFFnXuU4s0yfzg-2">
          <mxGeometry width="50" height="50" relative="1" as="geometry">
            <mxPoint x="271.58" y="500" as="sourcePoint" />
            <mxPoint x="360" y="450" as="targetPoint" />
            <Array as="points">
              <mxPoint x="312" y="450" />
            </Array>
          </mxGeometry>
        </mxCell>
        <mxCell id="kbArP1zFFnXuU4s0yfzg-4" value="Add inventory request item" style="rounded=1;whiteSpace=wrap;html=1;" vertex="1" parent="1">
          <mxGeometry x="271.58" y="460" width="78.42" height="40" as="geometry" />
        </mxCell>
        <mxCell id="kbArP1zFFnXuU4s0yfzg-5" value="" style="endArrow=classic;html=1;rounded=0;exitX=0.5;exitY=1;exitDx=0;exitDy=0;" edge="1" parent="1" source="kbArP1zFFnXuU4s0yfzg-4">
          <mxGeometry width="50" height="50" relative="1" as="geometry">
            <mxPoint x="271.58" y="490" as="sourcePoint" />
            <mxPoint x="311.58" y="530" as="targetPoint" />
          </mxGeometry>
        </mxCell>
        <mxCell id="kbArP1zFFnXuU4s0yfzg-6" value="update request item" style="rounded=1;whiteSpace=wrap;html=1;" vertex="1" parent="1">
          <mxGeometry x="271.58" y="530" width="80" height="30" as="geometry" />
        </mxCell>
        <mxCell id="kbArP1zFFnXuU4s0yfzg-7" value="" style="endArrow=classic;html=1;rounded=0;exitX=0.5;exitY=1;exitDx=0;exitDy=0;" edge="1" parent="1" source="kbArP1zFFnXuU4s0yfzg-6">
          <mxGeometry width="50" height="50" relative="1" as="geometry">
            <mxPoint x="271.58" y="480" as="sourcePoint" />
            <mxPoint x="311.58" y="590" as="targetPoint" />
          </mxGeometry>
        </mxCell>
        <mxCell id="kbArP1zFFnXuU4s0yfzg-8" value="view request status" style="rounded=1;whiteSpace=wrap;html=1;" vertex="1" parent="1">
          <mxGeometry x="271.58" y="590" width="80" height="30" as="geometry" />
        </mxCell>
        <mxCell id="kbArP1zFFnXuU4s0yfzg-9" value="" style="endArrow=classic;html=1;rounded=0;exitX=0.5;exitY=1;exitDx=0;exitDy=0;entryX=0.75;entryY=1;entryDx=0;entryDy=0;" edge="1" parent="1" source="kbArP1zFFnXuU4s0yfzg-8" target="kbArP1zFFnXuU4s0yfzg-10">
          <mxGeometry width="50" height="50" relative="1" as="geometry">
            <mxPoint x="271.58" y="480" as="sourcePoint" />
            <mxPoint x="370" y="310" as="targetPoint" />
            <Array as="points">
              <mxPoint x="311.58" y="640" />
              <mxPoint x="340" y="640" />
              <mxPoint x="360" y="640" />
              <mxPoint x="360" y="340" />
              <mxPoint x="329" y="340" />
            </Array>
          </mxGeometry>
        </mxCell>
        <mxCell id="kbArP1zFFnXuU4s0yfzg-10" value="chef dashboard" style="rounded=1;whiteSpace=wrap;html=1;" vertex="1" parent="1">
          <mxGeometry x="261.84" y="298" width="90" height="30" as="geometry" />
        </mxCell>
        <mxCell id="kbArP1zFFnXuU4s0yfzg-12" value="" style="endArrow=classic;html=1;rounded=0;exitX=0.5;exitY=1;exitDx=0;exitDy=0;" edge="1" parent="1" source="kbArP1zFFnXuU4s0yfzg-10">
          <mxGeometry width="50" height="50" relative="1" as="geometry">
            <mxPoint x="270" y="520" as="sourcePoint" />
            <mxPoint x="307" y="350" as="targetPoint" />
          </mxGeometry>
        </mxCell>
        <mxCell id="kbArP1zFFnXuU4s0yfzg-13" value="" style="endArrow=classic;html=1;rounded=0;exitX=1;exitY=0.5;exitDx=0;exitDy=0;entryX=0.758;entryY=0.092;entryDx=0;entryDy=0;entryPerimeter=0;" edge="1" parent="1" source="kbArP1zFFnXuU4s0yfzg-10" target="xVhLS2m0k9xJWD_yDWsX-66">
          <mxGeometry width="50" height="50" relative="1" as="geometry">
            <mxPoint x="270" y="520" as="sourcePoint" />
            <mxPoint x="320" y="470" as="targetPoint" />
            <Array as="points">
              <mxPoint x="372" y="313" />
            </Array>
          </mxGeometry>
        </mxCell>
        <mxCell id="kbArP1zFFnXuU4s0yfzg-14" value="" style="endArrow=classic;html=1;rounded=0;" edge="1" parent="1">
          <mxGeometry width="50" height="50" relative="1" as="geometry">
            <mxPoint x="260" y="310" as="sourcePoint" />
            <mxPoint x="270" y="480" as="targetPoint" />
            <Array as="points">
              <mxPoint x="240" y="310" />
              <mxPoint x="240" y="360" />
              <mxPoint x="240" y="480" />
            </Array>
          </mxGeometry>
        </mxCell>
        <mxCell id="kbArP1zFFnXuU4s0yfzg-15" value="no" style="text;html=1;align=center;verticalAlign=middle;resizable=0;points=[];autosize=1;strokeColor=none;fillColor=none;" vertex="1" parent="1">
          <mxGeometry x="240" y="208" width="40" height="30" as="geometry" />
        </mxCell>
        <mxCell id="kbArP1zFFnXuU4s0yfzg-16" value="" style="endArrow=classic;html=1;rounded=0;" edge="1" parent="1">
          <mxGeometry width="50" height="50" relative="1" as="geometry">
            <mxPoint x="850" y="300" as="sourcePoint" />
            <mxPoint x="850" y="355" as="targetPoint" />
          </mxGeometry>
        </mxCell>
        <mxCell id="kbArP1zFFnXuU4s0yfzg-17" value="Add chef" style="rounded=1;whiteSpace=wrap;html=1;" vertex="1" parent="1">
          <mxGeometry x="820" y="353.44" width="60" height="40" as="geometry" />
        </mxCell>
        <mxCell id="kbArP1zFFnXuU4s0yfzg-18" value="" style="endArrow=classic;html=1;rounded=0;exitX=0.5;exitY=1;exitDx=0;exitDy=0;" edge="1" parent="1" source="kbArP1zFFnXuU4s0yfzg-17">
          <mxGeometry width="50" height="50" relative="1" as="geometry">
            <mxPoint x="850" y="400" as="sourcePoint" />
            <mxPoint x="850" y="440" as="targetPoint" />
          </mxGeometry>
        </mxCell>
      </root>
    </mxGraphModel>
  </diagram>
</mxfile>
